<mxfile host="Electron" modified="2023-12-13T23:43:59.659Z" agent="Mozilla/5.0 (Windows NT 10.0; Win64; x64) AppleWebKit/537.36 (KHTML, like Gecko) draw.io/22.1.2 Chrome/114.0.5735.289 Electron/25.9.4 Safari/537.36" etag="5vQdRFG0W2HKuE6cNTD5" version="22.1.2" type="device">
  <diagram id="6a731a19-8d31-9384-78a2-239565b7b9f0" name="Page-1">
    <mxGraphModel dx="1178" dy="790" grid="1" gridSize="10" guides="1" tooltips="1" connect="1" arrows="1" fold="1" page="1" pageScale="1" pageWidth="1169" pageHeight="827" background="none" math="0" shadow="0">
      <root>
        <mxCell id="0" />
        <mxCell id="1" parent="0" />
        <mxCell id="2" value="Старт" style="shape=mxgraph.flowchart.terminator;strokeWidth=2;gradientColor=none;gradientDirection=north;fontStyle=0;html=1;" parent="1" vertex="1">
          <mxGeometry x="260" y="60" width="120" height="30" as="geometry" />
        </mxCell>
        <mxCell id="7" style="fontStyle=1;strokeColor=#003366;strokeWidth=1;html=1;" parent="1" source="2" edge="1">
          <mxGeometry relative="1" as="geometry">
            <mxPoint x="320" y="130" as="targetPoint" />
          </mxGeometry>
        </mxCell>
        <mxCell id="11" value="Завершение работы" style="text;fontStyle=0;html=1;strokeColor=none;gradientColor=none;fillColor=none;strokeWidth=2;" parent="1" vertex="1">
          <mxGeometry x="120" y="140" width="40" height="26" as="geometry" />
        </mxCell>
        <mxCell id="12" value="" style="edgeStyle=elbowEdgeStyle;elbow=horizontal;fontColor=#001933;fontStyle=1;strokeColor=#003366;strokeWidth=1;html=1;entryX=0;entryY=0.5;entryDx=0;entryDy=0;entryPerimeter=0;exitX=0.5;exitY=1;exitDx=0;exitDy=0;" parent="1" target="fPWqJdFwDeFb3AUVVMSi-60" edge="1" source="fPWqJdFwDeFb3AUVVMSi-57">
          <mxGeometry width="100" height="100" as="geometry">
            <mxPoint x="410" y="170" as="sourcePoint" />
            <mxPoint x="680" y="146" as="targetPoint" />
            <Array as="points">
              <mxPoint x="320" y="320" />
            </Array>
          </mxGeometry>
        </mxCell>
        <mxCell id="16" value="" style="edgeStyle=elbowEdgeStyle;elbow=horizontal;fontStyle=1;strokeColor=#003366;strokeWidth=1;html=1;entryX=0;entryY=0.5;entryDx=0;entryDy=0;entryPerimeter=0;exitX=0.5;exitY=1;exitDx=0;exitDy=0;" parent="1" target="39" edge="1" source="fPWqJdFwDeFb3AUVVMSi-57">
          <mxGeometry width="100" height="100" as="geometry">
            <mxPoint x="400" y="170" as="sourcePoint" />
            <mxPoint x="612.8" y="90" as="targetPoint" />
            <Array as="points">
              <mxPoint x="320" y="260" />
            </Array>
          </mxGeometry>
        </mxCell>
        <mxCell id="17" value="" style="edgeStyle=elbowEdgeStyle;elbow=horizontal;fontStyle=1;strokeColor=#003366;strokeWidth=1;html=1;exitX=0.5;exitY=1;exitDx=0;exitDy=0;" parent="1" source="fPWqJdFwDeFb3AUVVMSi-57" target="fPWqJdFwDeFb3AUVVMSi-59" edge="1">
          <mxGeometry width="100" height="100" as="geometry">
            <mxPoint x="659" y="70" as="sourcePoint" />
            <mxPoint x="659" y="120" as="targetPoint" />
            <Array as="points">
              <mxPoint x="320" y="290" />
            </Array>
          </mxGeometry>
        </mxCell>
        <mxCell id="18" value="Оформление прихода товара" style="shape=mxgraph.flowchart.predefined_process;strokeWidth=2;gradientColor=none;gradientDirection=north;fontStyle=0;html=1;" parent="1" vertex="1">
          <mxGeometry x="440" y="200" width="260" height="50" as="geometry" />
        </mxCell>
        <mxCell id="21" value="" style="edgeStyle=elbowEdgeStyle;elbow=horizontal;fontStyle=1;strokeColor=#003366;strokeWidth=1;html=1;exitX=1;exitY=0.5;exitDx=0;exitDy=0;exitPerimeter=0;" parent="1" source="18" edge="1">
          <mxGeometry width="100" height="100" as="geometry">
            <mxPoint x="790" y="210" as="sourcePoint" />
            <mxPoint x="320" y="100" as="targetPoint" />
            <Array as="points">
              <mxPoint x="720" y="190" />
            </Array>
          </mxGeometry>
        </mxCell>
        <mxCell id="39" value="Оформление заказа товара" style="shape=mxgraph.flowchart.predefined_process;strokeWidth=2;gradientColor=none;gradientDirection=north;fontStyle=0;html=1;" parent="1" vertex="1">
          <mxGeometry x="440" y="260" width="260" height="50" as="geometry" />
        </mxCell>
        <mxCell id="40" value="Конец" style="shape=mxgraph.flowchart.terminator;strokeWidth=2;gradientColor=none;gradientDirection=north;fontStyle=0;html=1;" parent="1" vertex="1">
          <mxGeometry x="260" y="700" width="120" height="30" as="geometry" />
        </mxCell>
        <mxCell id="52" value="" style="edgeStyle=elbowEdgeStyle;elbow=horizontal;exitX=0.5;exitY=1;fontStyle=1;strokeColor=#003366;strokeWidth=1;html=1;exitDx=0;exitDy=0;" parent="1" source="fPWqJdFwDeFb3AUVVMSi-57" target="18" edge="1">
          <mxGeometry width="100" height="100" as="geometry">
            <mxPoint x="545" y="307.28999999999996" as="sourcePoint" />
            <mxPoint x="545" y="240" as="targetPoint" />
            <Array as="points">
              <mxPoint x="320" y="225" />
            </Array>
          </mxGeometry>
        </mxCell>
        <mxCell id="fPWqJdFwDeFb3AUVVMSi-57" value="Выбор действия" style="rhombus;whiteSpace=wrap;html=1;" parent="1" vertex="1">
          <mxGeometry x="240" y="130" width="160" height="80" as="geometry" />
        </mxCell>
        <mxCell id="fPWqJdFwDeFb3AUVVMSi-58" value="Оформление продажи товара" style="shape=mxgraph.flowchart.predefined_process;strokeWidth=2;gradientColor=none;gradientDirection=north;fontStyle=0;html=1;" parent="1" vertex="1">
          <mxGeometry x="440" y="450" width="260" height="50" as="geometry" />
        </mxCell>
        <mxCell id="fPWqJdFwDeFb3AUVVMSi-59" value="Просмотр поставщиков" style="shape=mxgraph.flowchart.predefined_process;strokeWidth=2;gradientColor=none;gradientDirection=north;fontStyle=0;html=1;" parent="1" vertex="1">
          <mxGeometry x="440" y="320" width="260" height="50" as="geometry" />
        </mxCell>
        <mxCell id="fPWqJdFwDeFb3AUVVMSi-60" value="Просмотр заказчиков" style="shape=mxgraph.flowchart.predefined_process;strokeWidth=2;gradientColor=none;gradientDirection=north;fontStyle=0;html=1;" parent="1" vertex="1">
          <mxGeometry x="440" y="380" width="260" height="56" as="geometry" />
        </mxCell>
        <mxCell id="fPWqJdFwDeFb3AUVVMSi-61" value="Просмотр списка товаров" style="shape=mxgraph.flowchart.predefined_process;strokeWidth=2;gradientColor=none;gradientDirection=north;fontStyle=0;html=1;" parent="1" vertex="1">
          <mxGeometry x="440" y="510" width="260" height="50" as="geometry" />
        </mxCell>
        <mxCell id="fPWqJdFwDeFb3AUVVMSi-62" value="Настройка данных организации" style="shape=mxgraph.flowchart.predefined_process;strokeWidth=2;gradientColor=none;gradientDirection=north;fontStyle=0;html=1;" parent="1" vertex="1">
          <mxGeometry x="440" y="575" width="260" height="45" as="geometry" />
        </mxCell>
        <mxCell id="fPWqJdFwDeFb3AUVVMSi-63" value="" style="edgeStyle=elbowEdgeStyle;elbow=horizontal;fontColor=#001933;fontStyle=1;strokeColor=#003366;strokeWidth=1;html=1;entryX=0;entryY=0.5;entryDx=0;entryDy=0;entryPerimeter=0;exitX=0.5;exitY=1;exitDx=0;exitDy=0;" parent="1" source="fPWqJdFwDeFb3AUVVMSi-57" target="fPWqJdFwDeFb3AUVVMSi-58" edge="1">
          <mxGeometry width="100" height="100" as="geometry">
            <mxPoint x="420" y="180" as="sourcePoint" />
            <mxPoint x="490" y="418" as="targetPoint" />
            <Array as="points">
              <mxPoint x="320" y="330" />
            </Array>
          </mxGeometry>
        </mxCell>
        <mxCell id="fPWqJdFwDeFb3AUVVMSi-64" value="" style="edgeStyle=elbowEdgeStyle;elbow=horizontal;fontColor=#001933;fontStyle=1;strokeColor=#003366;strokeWidth=1;html=1;entryX=0;entryY=0.5;entryDx=0;entryDy=0;entryPerimeter=0;" parent="1" target="fPWqJdFwDeFb3AUVVMSi-61" edge="1">
          <mxGeometry width="100" height="100" as="geometry">
            <mxPoint x="320" y="210" as="sourcePoint" />
            <mxPoint x="490" y="485" as="targetPoint" />
            <Array as="points">
              <mxPoint x="320" y="390" />
            </Array>
          </mxGeometry>
        </mxCell>
        <mxCell id="fPWqJdFwDeFb3AUVVMSi-65" value="" style="edgeStyle=elbowEdgeStyle;elbow=horizontal;fontColor=#001933;fontStyle=1;strokeColor=#003366;strokeWidth=1;html=1;entryX=0;entryY=0.5;entryDx=0;entryDy=0;entryPerimeter=0;exitX=0.5;exitY=1;exitDx=0;exitDy=0;" parent="1" source="fPWqJdFwDeFb3AUVVMSi-57" target="fPWqJdFwDeFb3AUVVMSi-62" edge="1">
          <mxGeometry width="100" height="100" as="geometry">
            <mxPoint x="320" y="270" as="sourcePoint" />
            <mxPoint x="490" y="545" as="targetPoint" />
            <Array as="points">
              <mxPoint x="320" y="390" />
            </Array>
          </mxGeometry>
        </mxCell>
        <mxCell id="fPWqJdFwDeFb3AUVVMSi-66" value="" style="edgeStyle=elbowEdgeStyle;elbow=horizontal;fontStyle=1;strokeColor=#003366;strokeWidth=1;html=1;exitX=1;exitY=0.5;exitDx=0;exitDy=0;exitPerimeter=0;" parent="1" source="39" edge="1">
          <mxGeometry width="100" height="100" as="geometry">
            <mxPoint x="680" y="235" as="sourcePoint" />
            <mxPoint x="320" y="100" as="targetPoint" />
            <Array as="points">
              <mxPoint x="730" y="200" />
            </Array>
          </mxGeometry>
        </mxCell>
        <mxCell id="fPWqJdFwDeFb3AUVVMSi-67" value="" style="edgeStyle=elbowEdgeStyle;elbow=horizontal;fontStyle=1;strokeColor=#003366;strokeWidth=1;html=1;exitX=1;exitY=0.5;exitDx=0;exitDy=0;exitPerimeter=0;" parent="1" source="fPWqJdFwDeFb3AUVVMSi-59" edge="1">
          <mxGeometry width="100" height="100" as="geometry">
            <mxPoint x="680" y="295" as="sourcePoint" />
            <mxPoint x="320" y="100" as="targetPoint" />
            <Array as="points">
              <mxPoint x="740" y="210" />
            </Array>
          </mxGeometry>
        </mxCell>
        <mxCell id="fPWqJdFwDeFb3AUVVMSi-68" value="" style="edgeStyle=elbowEdgeStyle;elbow=horizontal;fontStyle=1;strokeColor=#003366;strokeWidth=1;html=1;exitX=1;exitY=0.5;exitDx=0;exitDy=0;exitPerimeter=0;" parent="1" source="fPWqJdFwDeFb3AUVVMSi-60" edge="1">
          <mxGeometry width="100" height="100" as="geometry">
            <mxPoint x="680" y="355" as="sourcePoint" />
            <mxPoint x="320" y="100" as="targetPoint" />
            <Array as="points">
              <mxPoint x="750" y="220" />
            </Array>
          </mxGeometry>
        </mxCell>
        <mxCell id="fPWqJdFwDeFb3AUVVMSi-69" value="" style="edgeStyle=elbowEdgeStyle;elbow=horizontal;fontStyle=1;strokeColor=#003366;strokeWidth=1;html=1;exitX=1;exitY=0.5;exitDx=0;exitDy=0;exitPerimeter=0;" parent="1" source="fPWqJdFwDeFb3AUVVMSi-58" edge="1">
          <mxGeometry width="100" height="100" as="geometry">
            <mxPoint x="680" y="418" as="sourcePoint" />
            <mxPoint x="320" y="100" as="targetPoint" />
            <Array as="points">
              <mxPoint x="760" y="230" />
            </Array>
          </mxGeometry>
        </mxCell>
        <mxCell id="fPWqJdFwDeFb3AUVVMSi-70" value="" style="edgeStyle=elbowEdgeStyle;elbow=horizontal;fontStyle=1;strokeColor=#003366;strokeWidth=1;html=1;exitX=1;exitY=0.5;exitDx=0;exitDy=0;exitPerimeter=0;" parent="1" source="fPWqJdFwDeFb3AUVVMSi-61" edge="1">
          <mxGeometry width="100" height="100" as="geometry">
            <mxPoint x="680" y="485" as="sourcePoint" />
            <mxPoint x="320" y="100" as="targetPoint" />
            <Array as="points">
              <mxPoint x="770" y="240" />
            </Array>
          </mxGeometry>
        </mxCell>
        <mxCell id="fPWqJdFwDeFb3AUVVMSi-71" value="" style="edgeStyle=elbowEdgeStyle;elbow=horizontal;fontStyle=1;strokeColor=#003366;strokeWidth=1;html=1;exitX=1;exitY=0.5;exitDx=0;exitDy=0;exitPerimeter=0;" parent="1" source="fPWqJdFwDeFb3AUVVMSi-62" edge="1">
          <mxGeometry width="100" height="100" as="geometry">
            <mxPoint x="680" y="545" as="sourcePoint" />
            <mxPoint x="320" y="100" as="targetPoint" />
            <Array as="points">
              <mxPoint x="780" y="250" />
            </Array>
          </mxGeometry>
        </mxCell>
        <mxCell id="1T49PvocgnERuHmG3-2I-52" value="" style="endArrow=classic;html=1;rounded=0;entryX=0.5;entryY=0;entryDx=0;entryDy=0;entryPerimeter=0;exitX=0;exitY=0.5;exitDx=0;exitDy=0;" edge="1" parent="1" source="fPWqJdFwDeFb3AUVVMSi-57" target="40">
          <mxGeometry width="50" height="50" relative="1" as="geometry">
            <mxPoint x="560" y="430" as="sourcePoint" />
            <mxPoint x="610" y="380" as="targetPoint" />
            <Array as="points">
              <mxPoint x="120" y="170" />
              <mxPoint x="120" y="640" />
              <mxPoint x="320" y="640" />
            </Array>
          </mxGeometry>
        </mxCell>
      </root>
    </mxGraphModel>
  </diagram>
</mxfile>
